# xmcd CD database file
#
# Track frame offsets:
#	150
#	16265
#	32302
#	51570
#	67194
#	84748
#	101094
#	117584
#	130408
#	146530
#	167827
#	184268
#	201287
#	218580
#	238685
#	256659
#	270822
#	287012
#
# Disc length: 4085 seconds
#
# Revision: 1
# Processed by: cddbd v1.5.2PL0 Copyright (c) Steve Scherf et al.
# Submitted via: CDex 1.51
#
DISCID=0a0ff312
DTITLE=Various Artist - MRH139
DYEAR=1900
DGENRE=Blues
TTITLE0=Mike Posner - I Took A Pill In Ibiza (seeb remix)
TTITLE1=Zayn - Like I Would
TTITLE2=Coldplay - Hymn For The Weeknd
TTITLE3=Tinie Tempah Ft Zara Larsson - Girls Like
TTITLE4=Fith Harmony Ft Dolla Sign - Work from home
TTITLE5=Sia - Cheap Thrills
TTITLE6=Alan Walker - Faded
TTITLE7=Riton Ft Kah-Lo - Rinse And Repeat
TTITLE8=Tiesto and Oliver Heldens Ft natalie La Rose - The Right Song
TTITLE9=Catfish And The Bottle Men - Soundcheck
TTITLE10=Flo Rida Ft Jason Derulo - Hello Friday
TTITLE11=All Saints - One Strike
TTITLE12=Viola Beach - Swings and Waterslides
TTITLE13=Lady GaGa - Till It Happens To You
TTITLE14=Zayn - It's You
TTITLE15=Lawson - Money
TTITLE16=Years and Years - Desire
TTITLE17=Kygo Ft Maty Noyes - Stay
EXTD=
EXTT0=
EXTT1=
EXTT2=
EXTT3=
EXTT4=
EXTT5=
EXTT6=
EXTT7=
EXTT8=
EXTT9=
EXTT10=
EXTT11=
EXTT12=
EXTT13=
EXTT14=
EXTT15=
EXTT16=
EXTT17=
PLAYORDER=
